<svg xmlns="http://www.w3.org/2000/svg" version="1.1" xmlns:xlink="http://www.w3.org/1999/xlink" xmlns:svgjs="http://svgjs.dev/svgjs" viewBox="0 0 800 800"><defs><linearGradient x1="50%" y1="0%" x2="50%" y2="100%" id="gggyrate-grad"><stop stop-color="hsl(0, 0%, 33%)" stop-opacity="1" offset="0%"></stop><stop stop-color="hsl(0, 0%, 19%)" stop-opacity="1" offset="100%"></stop></linearGradient></defs><g stroke-width="7" stroke="url(#gggyrate-grad)" fill="none"><polygon points="400,-713.75 -1085,1513.75 1885,1513.75" transform="rotate(110, 400, 400)" opacity="0.05"></polygon><polygon points="400,-693.5 -1058,1493.5 1858,1493.5" transform="rotate(108, 400, 400)" opacity="0.07"></polygon><polygon points="400,-673.25 -1031,1473.25 1831,1473.25" transform="rotate(106, 400, 400)" opacity="0.09"></polygon><polygon points="400,-653 -1004,1453 1804,1453" transform="rotate(104, 400, 400)" opacity="0.10"></polygon><polygon points="400,-632.75 -977,1432.75 1777,1432.75" transform="rotate(102, 400, 400)" opacity="0.12"></polygon><polygon points="400,-612.5 -950,1412.5 1750,1412.5" transform="rotate(100, 400, 400)" opacity="0.14"></polygon><polygon points="400,-592.25 -923,1392.25 1723,1392.25" transform="rotate(98, 400, 400)" opacity="0.16"></polygon><polygon points="400,-572 -896,1372 1696,1372" transform="rotate(96, 400, 400)" opacity="0.17"></polygon><polygon points="400,-551.75 -869,1351.75 1669,1351.75" transform="rotate(94, 400, 400)" opacity="0.19"></polygon><polygon points="400,-531.5 -842,1331.5 1642,1331.5" transform="rotate(92, 400, 400)" opacity="0.21"></polygon><polygon points="400,-511.25 -815,1311.25 1615,1311.25" transform="rotate(90, 400, 400)" opacity="0.23"></polygon><polygon points="400,-491 -788,1291 1588,1291" transform="rotate(88, 400, 400)" opacity="0.24"></polygon><polygon points="400,-470.75 -761,1270.75 1561,1270.75" transform="rotate(86, 400, 400)" opacity="0.26"></polygon><polygon points="400,-450.5 -734,1250.5 1534,1250.5" transform="rotate(84, 400, 400)" opacity="0.28"></polygon><polygon points="400,-430.25 -707,1230.25 1507,1230.25" transform="rotate(82, 400, 400)" opacity="0.30"></polygon><polygon points="400,-410 -680,1210 1480,1210" transform="rotate(80, 400, 400)" opacity="0.31"></polygon><polygon points="400,-389.75 -653,1189.75 1453,1189.75" transform="rotate(78, 400, 400)" opacity="0.33"></polygon><polygon points="400,-369.5 -626,1169.5 1426,1169.5" transform="rotate(76, 400, 400)" opacity="0.35"></polygon><polygon points="400,-349.25 -599,1149.25 1399,1149.25" transform="rotate(74, 400, 400)" opacity="0.37"></polygon><polygon points="400,-329 -572,1129 1372,1129" transform="rotate(72, 400, 400)" opacity="0.38"></polygon><polygon points="400,-308.75 -545,1108.75 1345,1108.75" transform="rotate(70, 400, 400)" opacity="0.40"></polygon><polygon points="400,-288.5 -518,1088.5 1318,1088.5" transform="rotate(68, 400, 400)" opacity="0.42"></polygon><polygon points="400,-268.25 -491,1068.25 1291,1068.25" transform="rotate(66, 400, 400)" opacity="0.44"></polygon><polygon points="400,-248 -464,1048 1264,1048" transform="rotate(64, 400, 400)" opacity="0.45"></polygon><polygon points="400,-227.75 -437,1027.75 1237,1027.75" transform="rotate(62, 400, 400)" opacity="0.47"></polygon><polygon points="400,-207.5 -410,1007.5 1210,1007.5" transform="rotate(60, 400, 400)" opacity="0.49"></polygon><polygon points="400,-187.25 -383,987.25 1183,987.25" transform="rotate(58, 400, 400)" opacity="0.51"></polygon><polygon points="400,-167 -356,967 1156,967" transform="rotate(56, 400, 400)" opacity="0.53"></polygon><polygon points="400,-146.75 -329,946.75 1129,946.75" transform="rotate(54, 400, 400)" opacity="0.54"></polygon><polygon points="400,-126.5 -302,926.5 1102,926.5" transform="rotate(52, 400, 400)" opacity="0.56"></polygon><polygon points="400,-106.25 -275,906.25 1075,906.25" transform="rotate(50, 400, 400)" opacity="0.58"></polygon><polygon points="400,-86 -248,886 1048,886" transform="rotate(48, 400, 400)" opacity="0.60"></polygon><polygon points="400,-65.75 -221,865.75 1021,865.75" transform="rotate(46, 400, 400)" opacity="0.61"></polygon><polygon points="400,-45.5 -194,845.5 994,845.5" transform="rotate(44, 400, 400)" opacity="0.63"></polygon><polygon points="400,-25.25 -167,825.25 967,825.25" transform="rotate(42, 400, 400)" opacity="0.65"></polygon><polygon points="400,-5 -140,805 940,805" transform="rotate(40, 400, 400)" opacity="0.67"></polygon><polygon points="400,15.25 -113,784.75 913,784.75" transform="rotate(38, 400, 400)" opacity="0.68"></polygon><polygon points="400,35.5 -86,764.5 886,764.5" transform="rotate(36, 400, 400)" opacity="0.70"></polygon><polygon points="400,55.75 -59,744.25 859,744.25" transform="rotate(34, 400, 400)" opacity="0.72"></polygon><polygon points="400,76 -32,724 832,724" transform="rotate(32, 400, 400)" opacity="0.74"></polygon><polygon points="400,96.25 -5,703.75 805,703.75" transform="rotate(30, 400, 400)" opacity="0.75"></polygon><polygon points="400,116.5 22,683.5 778,683.5" transform="rotate(28, 400, 400)" opacity="0.77"></polygon><polygon points="400,136.75 49,663.25 751,663.25" transform="rotate(26, 400, 400)" opacity="0.79"></polygon><polygon points="400,157 76,643 724,643" transform="rotate(24, 400, 400)" opacity="0.81"></polygon><polygon points="400,177.25 103,622.75 697,622.75" transform="rotate(22, 400, 400)" opacity="0.82"></polygon><polygon points="400,197.5 130,602.5 670,602.5" transform="rotate(20, 400, 400)" opacity="0.84"></polygon><polygon points="400,217.75 157,582.25 643,582.25" transform="rotate(18, 400, 400)" opacity="0.86"></polygon><polygon points="400,238 184,562 616,562" transform="rotate(16, 400, 400)" opacity="0.88"></polygon><polygon points="400,258.25 211,541.75 589,541.75" transform="rotate(14, 400, 400)" opacity="0.89"></polygon><polygon points="400,278.5 238,521.5 562,521.5" transform="rotate(12, 400, 400)" opacity="0.91"></polygon><polygon points="400,298.75 265,501.25 535,501.25" transform="rotate(10, 400, 400)" opacity="0.93"></polygon><polygon points="400,319 292,481 508,481" transform="rotate(8, 400, 400)" opacity="0.95"></polygon><polygon points="400,339.25 319,460.75 481,460.75" transform="rotate(6, 400, 400)" opacity="0.96"></polygon><polygon points="400,359.5 346,440.5 454,440.5" transform="rotate(4, 400, 400)" opacity="0.98"></polygon><polygon points="400,379.75 373,420.25 427,420.25" transform="rotate(2, 400, 400)" opacity="1.00"></polygon></g></svg>